<svg xmlns="http://www.w3.org/2000/svg" xmlns:svg="http://www.w3.org/2000/svg" id="svg4" width="512" height="512" fill="none" version="1.1" viewBox="0 0 512 512"><g id="g4" transform="matrix(5.4468085,0,0,5.4468085,-5.4468085,-5.4468085)"><rect style="fill:#0b53bf;fill-opacity:1;stroke-width:.307084" id="rect4" width="94" height="94" x="1" y="1"/><path id="path2" fill="#fff" d="m 56.4609,13.7778 v 6.0513 c 12.0732,3.6425 20.915,14.8637 20.915,28.1706 0,13.3069 -8.8418,24.5281 -20.915,28.1706 v 6.0513 c 15.3925,-3.76 26.79,-17.6544 26.79,-34.2219 0,-16.5675 -11.3975,-30.4619 -26.79,-34.2219 z"/><path id="path3" fill="#fff" d="m 18.625,47.9997 c 0,-13.3069 8.8419,-24.5281 20.915,-28.1706 v -6.0513 c -15.3925,3.76 -26.79,17.6544 -26.79,34.2219 0,16.5675 11.3975,30.4619 26.79,34.2219 V 76.1703 C 27.4669,72.5572 18.625,61.3066 18.625,47.9997 Z"/><path id="path4" fill="#fff" d="m 60.6319,54.5506 c 0,-12.0144 -18.8294,-7.0793 -18.8294,-13.7181 0,-2.3794 1.9094,-3.9069 5.5519,-3.9069 4.3475,0 5.8456,2.115 6.3156,4.9644 h 5.9925 c -0.5346,-5.3474 -3.6037,-8.7238 -8.7243,-9.7296 v -4.7229 h -5.875 v 4.5543 c -5.6098,0.7144 -9.1357,3.9812 -9.1357,8.8407 0,12.0731 18.8588,7.5494 18.8588,14.0706 0,2.4675 -2.3794,4.1125 -6.4038,4.1125 -5.2581,0 -6.9912,-2.3206 -7.6375,-5.5225 h -5.8456 c 0.3787,5.8571 3.9903,9.5228 10.1638,10.4376 v 4.6318 h 5.875 v -4.5702 c 6.0251,-0.7784 9.6937,-4.2834 9.6937,-9.4417 z"/></g></svg>