<svg xmlns="http://www.w3.org/2000/svg" xmlns:svg="http://www.w3.org/2000/svg" id="svg1" width="512" height="512" version="1.1" viewBox="0 0 135.467 135.467"><defs id="defs1"><linearGradient id="SVGID_3_" x1="312.548" x2="92.882" y1="376.688" y2="-44.061" gradientTransform="matrix(0.26458333,0,0,-0.26458333,27.910238,135.82393)" gradientUnits="userSpaceOnUse"><stop style="stop-color:#00ffa3" id="stop5" offset="0"/><stop style="stop-color:#dc1fff" id="stop6" offset="1"/></linearGradient><linearGradient id="SVGID_2_" x1="264.829" x2="45.163" y1="401.601" y2="-19.147" gradientTransform="matrix(0.26458333,0,0,-0.26458333,27.910238,135.82393)" gradientUnits="userSpaceOnUse"><stop style="stop-color:#00ffa3" id="stop3" offset="0"/><stop style="stop-color:#dc1fff" id="stop4" offset="1"/></linearGradient><linearGradient id="SVGID_1_" x1="360.879" x2="141.213" y1="351.455" y2="-69.294" gradientTransform="matrix(0.26458333,0,0,-0.26458333,27.910238,135.82393)" gradientUnits="userSpaceOnUse"><stop style="stop-color:#00ffa3" id="stop1" offset="0"/><stop style="stop-color:#dc1fff" id="stop2" offset="1"/></linearGradient></defs><g id="layer1" transform="translate(-14.315495,-32.023872)"><rect style="fill:#000;stroke-width:.357181" id="rect1" width="135.467" height="135.467" x="14.315" y="32.024"/><g id="g1" transform="matrix(0.89903566,0,0,0.89903566,9.6561066,15.265762)"><path id="path2" d="m 45.002322,115.68914 c 0.635,-0.635 1.50812,-1.00542 2.43417,-1.00542 h 83.978738 c 1.53459,0 2.30188,1.85208 1.21709,2.93687 l -16.58938,16.58938 c -0.635,0.635 -1.50812,1.00542 -2.43416,1.00542 H 29.63003 c -1.534584,0 -2.301875,-1.85208 -1.217084,-2.93688 z" class="st0" style="fill:url(#SVGID_1_);stroke-width:.264583"/><path id="path4" d="m 45.002322,53.750179 c 0.66146,-0.635 1.53458,-1.005417 2.43417,-1.005417 h 83.978738 c 1.53459,0 2.30188,1.852083 1.21709,2.936875 l -16.58938,16.589375 c -0.635,0.635 -1.50812,1.005416 -2.43416,1.005416 H 29.63003 c -1.534584,0 -2.301875,-1.852083 -1.217084,-2.936875 z" class="st1" style="fill:url(#SVGID_2_);stroke-width:.264583"/><path id="path6" d="m 116.04294,84.52122 c -0.635,-0.635 -1.50812,-1.005417 -2.43416,-1.005417 H 29.63003 c -1.534584,0 -2.301875,1.852084 -1.217084,2.936875 l 16.589376,16.589372 c 0.635,0.635 1.50812,1.00542 2.43417,1.00542 h 83.978738 c 1.53459,0 2.30188,-1.85208 1.21709,-2.93688 z" class="st2" style="fill:url(#SVGID_3_);stroke-width:.264583"/></g></g></svg>