<svg xmlns="http://www.w3.org/2000/svg" xmlns:svg="http://www.w3.org/2000/svg" id="svg3" width="512" height="512" version="1.1" viewBox="0 0 512 512"><defs id="defs2"><style id="style1">.cls-1,.cls-2{fill-rule:evenodd}.cls-1{fill:url(#linear-gradient)}.cls-2{fill:#fff}</style><linearGradient id="linear-gradient" x1="4846.23" x2="13324.84" y1="-4671.46" y2="-4671.46" gradientTransform="matrix(0.07,0,0,-0.07,-348.93,-70.13)" gradientUnits="userSpaceOnUse"><stop id="stop1" offset="0" stop-color="#d8b35d"/><stop id="stop2" offset="1" stop-color="#f5e7bf"/></linearGradient></defs><title id="title2">tether-gold</title><g id="Layer_2" data-name="Layer 2" transform="matrix(0.69000442,0,0,0.69000442,44.897251,72.309818)"><g id="Layer_1-2" data-name="Layer 1"><g id="Layer_1-3" data-name="Layer_1"><path id="path2" d="M 112.11,2.71 0.49,237.12 a 4.36,4.36 0 0 0 0.9,5.23 L 302.7,531.22 a 4.72,4.72 0 0 0 6.32,0 L 610.51,242.35 a 4.41,4.41 0 0 0 0.9,-5.23 L 499.79,2.71 A 4.12,4.12 0 0 0 495.79,0 H 116.07 a 4.49,4.49 0 0 0 -4,2.71 z" class="cls-1" style="fill:url(#linear-gradient)"/><path id="path3" d="m 344.72,261.1 v 0 c -2.16,0.18 -13.34,0.9 -38.23,0.9 -19.83,0 -33.9,-0.54 -38.95,-0.9 v 0 c -76.63,-3.42 -133.79,-16.77 -133.79,-32.64 0,-15.87 57.16,-29.39 133.79,-32.81 v 52.11 c 5,0.36 19.3,1.26 39.13,1.26 23.8,0 35.7,-1.08 37.87,-1.26 v -52.11 c 76.45,3.42 133.61,16.77 133.61,32.63 0,15.86 -57,29.4 -133.43,32.82 z m 0,-70.68 V 143.71 H 451.47 V 72.49 H 160.8 v 71.22 h 106.74 v 46.71 c -86.73,4 -152,21.09 -152,41.83 0,20.74 65.27,37.69 152,41.83 v 149.49 h 77.18 V 274.08 c 86.55,-4 151.65,-21.1 151.65,-41.65 0,-20.55 -65.1,-38.05 -151.65,-42 v 0 z" class="cls-2"/></g></g></g><metadata id="metadata3"/></svg>