<svg xmlns="http://www.w3.org/2000/svg" width="827" height="827" fill="none" viewBox="0 0 827 827"><g clip-path="url(#clip0_5786_168)"><path fill="#fff" d="M0 0H827V827H0V0Z"/><path fill="#0D47A1" d="M321.611 0H45.9444L321.611 252.694V0ZM505.389 0V275.667L804.028 0H505.389ZM827 206.75L689.167 321.611H827V206.75ZM827 505.389H643.222L827 666.194V505.389ZM781.056 827L505.389 574.306V827H781.056ZM321.611 827V551.333L22.9722 827H321.611ZM0 620.25L137.833 505.389H0V620.25ZM0 321.611H183.778L0 160.806V321.611Z"/><path fill="#EF5350" d="M321.611 321.611L-298.639 -229.722V-124.05L229.722 321.611H321.611ZM367.556 367.556V3.8147e-06H459.444V367.556H827V459.444H459.444V827H367.556V459.444H1.90735e-05V367.556H367.556ZM-413.5 1056.72L229.722 505.389H321.611L-298.639 1056.72H-413.5ZM505.389 321.611L1056.72 -183.778H1157.8L597.278 321.611H505.389ZM597.278 505.389H505.389L1033.75 964.833V872.944L597.278 505.389Z"/></g><defs><clipPath id="clip0_5786_168"><rect width="827" height="827" fill="#fff"/></clipPath></defs></svg>