<svg xmlns="http://www.w3.org/2000/svg" width="827" height="827" fill="none" viewBox="0 0 827 827"><g clip-path="url(#clip0_5664_169)"><rect width="827" height="827" fill="#323234"/><path fill="#fff" d="M0 0H827V827H0V0Z"/><g clip-path="url(#clip1_5664_169)"><mask id="mask0_5664_169" width="302" height="301" x="213" y="413" maskUnits="userSpaceOnUse" style="mask-type:luminance"><path fill="#fff" d="M245.485 713.689L213.93 682.124L482.57 413.266L514.126 444.831L245.485 713.689Z"/></mask><g mask="url(#mask0_5664_169)"><path fill="url(#paint0_linear_5664_169)" d="M63.9414 563.487L363.726 262.844L664.228 563.487L363.726 863.413L63.9414 563.487Z"/></g><mask id="mask1_5664_169" width="302" height="302" x="313" y="112" maskUnits="userSpaceOnUse" style="mask-type:luminance"><path fill="#fff" d="M345.288 413.285L313.742 381.71L582.459 112.928L614.005 144.499L345.288 413.285Z"/></mask><g mask="url(#mask1_5664_169)"><path fill="url(#paint1_linear_5664_169)" d="M163.629 262.844L463.414 -37.1305L763.916 262.844L463.414 563.487L163.629 262.844Z"/></g></g></g><defs><linearGradient id="paint0_linear_5664_169" x1="229.772" x2="498.094" y1="697.553" y2="429.357" gradientUnits="userSpaceOnUse"><stop stop-color="#066CB4"/><stop offset=".1" stop-color="#0672AD"/><stop offset=".2" stop-color="#027F9A"/><stop offset=".4" stop-color="#029576"/><stop offset=".5" stop-color="#08A64E"/><stop offset="1" stop-color="#B3D036"/></linearGradient><linearGradient id="paint1_linear_5664_169" x1="331.753" x2="597.972" y1="394.949" y2="128.808" gradientUnits="userSpaceOnUse"><stop stop-color="#C91A88"/><stop offset=".1" stop-color="#CF2C7F"/><stop offset=".3" stop-color="#DB4C63"/><stop offset=".6" stop-color="#EE6C25"/><stop offset=".7" stop-color="#F1822C"/><stop offset="1" stop-color="#F8B142"/></linearGradient><clipPath id="clip0_5664_169"><rect width="827" height="827" fill="#fff"/></clipPath><clipPath id="clip1_5664_169"><rect width="400" height="601" fill="#fff" transform="translate(214 113)"/></clipPath></defs></svg>