<svg xmlns="http://www.w3.org/2000/svg" id="Capa_1" version="1.1" viewBox="0 0 256 256"><defs><style>.st0{fill:#fdac0d}.st1{fill:#2d2b28}</style></defs><rect width="256" height="256" class="st0"/><g><path d="M196.6,158.3c0,15.6-12.6,28.2-28.2,28.2s-28.2-12.6-28.2-28.2,12.6-28.2,28.2-28.2,28.2,12.6,28.2,28.2ZM184.6,158.3c0-9-7.3-16.3-16.3-16.3s-16.3,7.3-16.3,16.3,7.3,16.3,16.3,16.3,16.3-7.3,16.3-16.3Z" class="st1"/><polygon points="111.6 153.3 99.9 153.6 133.7 90.7 145.1 90.9 111.6 153.3" class="st1"/><polygon points="122.7 164.6 111.1 164.8 144.9 101.9 156.3 102 122.7 164.6" class="st1"/><path d="M115.8,97.7c0,15.6-12.6,28.2-28.2,28.2s-28.2-12.6-28.2-28.2,12.6-28.2,28.2-28.2,28.2,12.6,28.2,28.2ZM103.9,97.7c0-9-7.3-16.2-16.2-16.2s-16.2,7.3-16.2,16.2,7.3,16.2,16.2,16.2,16.2-7.3,16.2-16.2Z" class="st1"/></g></svg>