<svg xmlns="http://www.w3.org/2000/svg" xmlns:svg="http://www.w3.org/2000/svg" id="svg93" width="256" height="256" fill="none" version="1.1" viewBox="0 0 256 256"><g id="g29" clip-path="url(#clip0_595_2125)" transform="matrix(2,0,0,2,0,-2.53004)"><path id="path1" fill="url(#paint0_linear_595_2125)" d="M 27.8047,27.6887 H 15.5303 c -4.4269,10e-5 -8.01565,3.5887 -8.01565,8.0156 v 4.2588 C 7.5149,47.8484 13.9077,54.2405 21.793,54.2405 h 6.0117 v 7.5146 H 21.041 C 9.42037,61.7551 0,52.3348 0,40.7141 V 34.2014 C 3.22786e-5,26.4543 6.28027,20.1741 14.0273,20.1741 h 13.7774 z" style="fill:url(#paint0_linear_595_2125)"/><mask id="mask0_595_2125" width="28" height="42" x="0" y="20" maskUnits="userSpaceOnUse"><path id="path2" fill="url(#paint1_linear_595_2125)" d="M 27.8047,27.6887 H 15.5303 c -4.4269,10e-5 -8.01565,3.5887 -8.01565,8.0156 v 4.2588 C 7.5149,47.8484 13.9077,54.2405 21.793,54.2405 h 6.0117 v 7.5146 H 21.041 C 9.42037,61.7551 0,52.3348 0,40.7141 V 34.2014 C 3.22786e-5,26.4543 6.28027,20.1741 14.0273,20.1741 h 13.7774 z"/></mask><g id="g5" mask="url(#mask0_595_2125)"><g id="g3" filter="url(#filter0_f_595_2125)"><path id="path3" fill="#ffc100" d="m 11.4402,26.6868 h 5.593 l -4.277,1.3359 -3.73473,3.7914 C 7.81121,33.0427 7.00246,34.6097 6.70219,36.308 l -0.69047,3.9052 v -5.1413 c 0,-1.8419 0.72454,-3.6099 2.01712,-4.922 z"/></g><g id="g4" filter="url(#filter1_f_595_2125)"><path id="path4" fill="#ffc100" d="m 15.3629,59.8897 3.145,-0.4254 -2.6733,-1.3895 -6.63988,-3.1393 C 8.55071,54.631 7.94745,54.2469 7.39906,53.7922 l -3.50063,-2.9024 3.56792,4.7835 c 0.44536,0.5971 0.983,1.1194 1.59271,1.5474 l 2.75264,1.932 z"/></g></g><g id="g6" filter="url(#filter2_f_595_2125)"><path id="path5" fill="#fff" d="M 10.521,22.5537 C 8.09963,23.1799 3.15664,25.7099 2.75586,30.8199 3.88306,28.6907 3.63257,26.812 10.521,22.5537 Z"/></g><path id="path6" fill="url(#paint2_linear_595_2125)" d="m 100.195,27.6887 h 12.275 c 4.427,10e-5 8.015,3.5887 8.015,8.0156 v 4.2588 c 0,7.8853 -6.393,14.2774 -14.278,14.2774 h -6.012 v 7.5146 h 6.764 c 11.621,0 21.041,-9.4203 21.041,-21.041 v -6.5127 c 0,-7.7471 -6.28,-14.0273 -14.027,-14.0273 h -13.778 z" style="fill:url(#paint2_linear_595_2125)"/><mask id="mask1_595_2125" width="28" height="42" x="100" y="20" maskUnits="userSpaceOnUse"><path id="path7" fill="url(#paint3_linear_595_2125)" d="m 100.195,27.6887 h 12.275 c 4.427,10e-5 8.015,3.5887 8.015,8.0156 v 4.2588 c 0,7.8853 -6.393,14.2774 -14.278,14.2774 h -6.012 v 7.5146 h 6.764 c 11.621,0 21.041,-9.4203 21.041,-21.041 v -6.5127 c 0,-7.7471 -6.28,-14.0273 -14.027,-14.0273 h -13.778 z"/></mask><g id="g10" mask="url(#mask1_595_2125)"><g id="g8" filter="url(#filter3_f_595_2125)"><path id="path8" fill="#ffc100" d="m 116.56,26.6868 h -5.593 l 4.277,1.3359 3.735,3.7914 c 1.21,1.2286 2.019,2.7956 2.319,4.4939 l 0.69,3.9052 v -5.1413 c 0,-1.8419 -0.724,-3.6099 -2.017,-4.922 z"/></g><g id="g9" filter="url(#filter4_f_595_2125)"><path id="path9" fill="#ffc100" d="m 112.637,59.8897 -3.145,-0.4254 2.673,-1.3895 6.64,-3.1393 c 0.644,-0.3045 1.248,-0.6886 1.796,-1.1433 l 3.501,-2.9024 -3.568,4.7835 c -0.446,0.5971 -0.983,1.1194 -1.593,1.5474 l -2.753,1.932 z"/></g></g><g id="g11" filter="url(#filter5_f_595_2125)"><path id="path10" fill="#fff" d="m 117.479,22.5537 c 2.421,0.6262 7.364,3.1562 7.765,8.2662 -1.127,-2.1292 -0.877,-4.0079 -7.765,-8.2662 z"/></g><g id="g12" filter="url(#filter6_i_595_2125)"><path id="path11" fill="url(#paint4_linear_595_2125)" d="m 36.8223,98.8277 c 0,-2.6285 2.1308,-4.7593 4.7593,-4.7593 h 45.088 c 2.6285,0 4.7593,2.1308 4.7593,4.7593 v 5.5103 c 0,2.629 -2.1308,4.76 -4.7593,4.76 h -45.088 c -2.6285,0 -4.7593,-2.131 -4.7593,-4.76 z" style="fill:url(#paint4_linear_595_2125)"/></g><mask id="mask2_595_2125" width="56" height="16" x="36" y="94" maskUnits="userSpaceOnUse"><path id="path12" fill="url(#paint5_linear_595_2125)" d="m 36.8213,98.8277 c 0,-2.6285 2.1308,-4.7593 4.7593,-4.7593 h 45.088 c 2.6285,0 4.7593,2.1308 4.7593,4.7593 v 5.5103 c 0,2.629 -2.1308,4.76 -4.7593,4.76 h -45.088 c -2.6285,0 -4.7593,-2.131 -4.7593,-4.76 z" opacity=".8"/></mask><g id="g17" mask="url(#mask2_595_2125)"><g id="g13" filter="url(#filter7_f_595_2125)" opacity=".8"><path id="path13" fill="#6b00ef" d="m 49.7197,99.2034 c 0,-1.3143 1.0654,-2.3797 2.3797,-2.3797 h 35.2744 c 1.3142,0 2.3796,1.0654 2.3796,2.3797 v 0 c 0,1.3146 -1.0654,2.3796 -2.3796,2.3796 H 52.0994 c -1.3143,0 -2.3797,-1.065 -2.3797,-2.3796 z"/></g><g id="g14" filter="url(#filter8_f_595_2125)" opacity=".8"><path id="path14" fill="url(#paint6_linear_595_2125)" d="m 38.4961,96.3228 h 22.7807 l -5.8824,9.5182 H 38.4961 Z" style="fill:url(#paint6_linear_595_2125)"/></g><g id="g15" filter="url(#filter9_f_595_2125)" opacity=".8"><path id="path15" fill="url(#paint7_linear_595_2125)" d="m 83.6631,96.3228 h 5.7612 l -1.4876,9.5182 h -4.2736 z" style="fill:url(#paint7_linear_595_2125)"/></g><g id="g16" filter="url(#filter10_f_595_2125)" opacity=".8"><path id="path16" fill="#fff" d="m 45.8662,94.0684 h 36.5161 l -9.429,1.7534 H 53.9065 Z"/></g></g><g id="g18" filter="url(#filter11_i_595_2125)"><path id="path17" fill="url(#paint8_linear_595_2125)" d="m 22.2939,12.4088 c 0,-2.49012 2.0187,-4.50878 4.5089,-4.50878 h 74.3952 c 2.49,0 4.509,2.01867 4.509,4.50878 v 33.8161 c 0,20.7512 -16.8223,37.5734 -37.5735,37.5734 h -8.2662 c -20.7512,0 -37.5734,-16.8222 -37.5734,-37.5734 z" style="fill:url(#paint8_linear_595_2125)"/></g><rect id="rect18" width="17.033" height="11.021" x="55.608" y="83.047" fill="url(#paint9_linear_595_2125)" style="fill:url(#paint9_linear_595_2125)"/><g id="g19" filter="url(#filter12_i_595_2125)"><path id="path18" fill="url(#paint10_linear_595_2125)" d="m 23.2959,109.849 c 0,-2.628 2.1308,-4.759 4.7593,-4.759 h 72.1408 c 2.629,0 4.759,2.131 4.759,4.759 v 5.511 c 0,2.628 -2.13,4.759 -4.759,4.759 H 28.0552 c -2.6285,0 -4.7593,-2.131 -4.7593,-4.759 z" style="fill:url(#paint10_linear_595_2125)"/></g><mask id="mask3_595_2125" width="82" height="16" x="23" y="105" maskUnits="userSpaceOnUse"><path id="path19" fill="url(#paint11_linear_595_2125)" d="m 23.2949,109.849 c 0,-2.628 2.1308,-4.759 4.7593,-4.759 h 72.1408 c 2.629,0 4.759,2.131 4.759,4.759 v 5.511 c 0,2.629 -2.13,4.759 -4.759,4.759 H 28.0542 c -2.6285,0 -4.7593,-2.13 -4.7593,-4.759 z" opacity=".8"/></mask><g id="g23" mask="url(#mask3_595_2125)"><g id="g20" filter="url(#filter13_f_595_2125)" opacity=".8"><path id="path20" fill="#002cef" d="m 42.583,110.225 c 0,-1.314 1.0654,-2.38 2.3797,-2.38 H 100.07 c 1.315,0 2.38,1.066 2.38,2.38 v 0 c 0,1.314 -1.065,2.38 -2.38,2.38 H 44.9627 c -1.3143,0 -2.3797,-1.066 -2.3797,-2.38 z"/></g><g id="g21" filter="url(#filter14_f_595_2125)" opacity=".8"><path id="path21" fill="url(#paint12_linear_595_2125)" d="m 25.7998,107.344 h 34.0665 l -8.7965,9.519 h -25.27 z" style="fill:url(#paint12_linear_595_2125)"/></g><g id="g22" filter="url(#filter15_f_595_2125)" opacity=".8"><path id="path22" fill="#fff" d="m 36.8213,105.09 h 54.6066 l -14.1003,1.753 H 48.8448 Z"/></g></g><rect id="rect23" width="27.554" height="6.513" x="50.349" y="83.047" fill="url(#paint13_linear_595_2125)" rx="3.256" style="fill:url(#paint13_linear_595_2125)"/><mask id="mask4_595_2125" width="84" height="77" x="22" y="7" maskUnits="userSpaceOnUse"><path id="path23" fill="url(#paint14_linear_595_2125)" d="m 22.293,12.4088 c 0,-2.49012 2.0186,-4.50878 4.5088,-4.50878 h 74.3952 c 2.49,0 4.509,2.01867 4.509,4.50878 v 33.8161 c 0,20.7512 -16.8223,37.5734 -37.5735,37.5734 H 59.8664 C 39.1152,83.7983 22.293,66.9761 22.293,46.2249 Z"/></mask><g id="g27" mask="url(#mask4_595_2125)"><g id="g24" filter="url(#filter16_f_595_2125)"><path id="path24" fill="url(#paint15_linear_595_2125)" d="m 103.523,50.2327 c 0.931,2.0351 1.432,4.1761 1.432,6.3877 0,13.3498 -18.112,24.1718 -40.454,24.1718 -22.342,0 -40.4539,-10.822 -40.4541,-24.1718 0,-2.2115 0.4997,-4.3527 1.4306,-6.3877 4.6889,10.2498 20.3825,17.7851 39.0235,17.7851 18.6408,0 34.3334,-7.5355 39.022,-17.7851 z" style="fill:url(#paint15_linear_595_2125)"/></g><g id="g25" filter="url(#filter17_f_595_2125)"><path id="path25" fill="#ffb300" d="M 73.6279,6.22412 C 73.5649,4.35395 75.2076,2.88138 77.0598,3.14767 L 88.803,4.83602 c 1.4797,0.21273 2.5781,1.48043 2.5781,2.97528 v 34.8021 c 0,0.6486 -0.1199,1.2917 -0.3538,1.8968 l -7.7596,20.0716 c -0.4124,1.0668 -1.3945,1.8071 -2.5336,1.9099 L 66.3,67.7939 c -3.2007,0.2888 -4.5606,-3.9707 -1.7847,-5.59 l 9.2358,-5.3878 c 0.9547,-0.557 1.5268,-1.5929 1.4896,-2.6976 z"/></g><g id="g26" filter="url(#filter18_f_595_2125)"><path id="path26" fill="#fff" d="M 41.0277,4.58982 C 40.9249,3.19987 39.8802,2.06286 38.5039,1.84313 L 32.601,0.900722 C 30.3958,0.548652 28.5902,2.63907 29.2593,4.76963 l 3.3038,10.51977 3.6673,12.6945 c 0.1072,0.371 0.2849,0.7179 0.5233,1.0217 l 0.6216,0.7919 c 1.8327,2.335 5.581,0.8827 5.3622,-2.0775 L 41.9597,17.1993 Z"/></g></g><g id="g28" filter="url(#filter19_di_595_2125)"><path id="path27" fill="url(#paint16_linear_595_2125)" d="m 60.4556,20.1292 c 1.5038,-2.8501 5.5857,-2.8501 7.0895,0 l 4.7613,9.0245 c 0.5799,1.0991 1.6369,1.8671 2.8614,2.079 l 10.0542,1.7396 c 3.1753,0.5494 4.4367,4.4315 2.1907,6.7424 l -7.1114,7.3171 c -0.8661,0.8911 -1.2699,2.1337 -1.093,3.3637 l 1.4525,10.0997 c 0.4587,3.1897 -2.8437,5.589 -5.7355,4.167 l -9.1565,-4.5023 c -1.1152,-0.5483 -2.4217,-0.5483 -3.5369,0 l -9.1565,4.5023 c -2.8918,1.422 -6.1941,-0.9773 -5.7354,-4.167 l 1.4524,-10.0997 c 0.1769,-1.23 -0.2268,-2.4726 -1.093,-3.3637 L 40.588,39.7147 c -2.246,-2.3109 -0.9846,-6.193 2.1907,-6.7424 l 10.0542,-1.7396 c 1.2245,-0.2119 2.2815,-0.9799 2.8614,-2.079 z" style="fill:url(#paint16_linear_595_2125)"/></g></g><defs id="defs93"><filter id="filter0_f_595_2125" width="13.276" height="15.781" x="4.885" y="25.56" color-interpolation-filters="sRGB" filterUnits="userSpaceOnUse"><feFlood id="feFlood29" flood-opacity="0" result="BackgroundImageFix"/><feBlend id="feBlend29" in="SourceGraphic" in2="BackgroundImageFix" mode="normal" result="shape"/><feGaussianBlur id="feGaussianBlur29" result="effect1_foregroundBlur_595_2125" stdDeviation=".564"/></filter><filter id="filter1_f_595_2125" width="16.864" height="11.254" x="2.771" y="49.763" color-interpolation-filters="sRGB" filterUnits="userSpaceOnUse"><feFlood id="feFlood30" flood-opacity="0" result="BackgroundImageFix"/><feBlend id="feBlend30" in="SourceGraphic" in2="BackgroundImageFix" mode="normal" result="shape"/><feGaussianBlur id="feGaussianBlur30" result="effect1_foregroundBlur_595_2125" stdDeviation=".564"/></filter><filter id="filter2_f_595_2125" width="9.77" height="10.27" x="1.754" y="21.552" color-interpolation-filters="sRGB" filterUnits="userSpaceOnUse"><feFlood id="feFlood31" flood-opacity="0" result="BackgroundImageFix"/><feBlend id="feBlend31" in="SourceGraphic" in2="BackgroundImageFix" mode="normal" result="shape"/><feGaussianBlur id="feGaussianBlur31" result="effect1_foregroundBlur_595_2125" stdDeviation=".501"/></filter><filter id="filter3_f_595_2125" width="13.276" height="15.781" x="109.84" y="25.56" color-interpolation-filters="sRGB" filterUnits="userSpaceOnUse"><feFlood id="feFlood32" flood-opacity="0" result="BackgroundImageFix"/><feBlend id="feBlend32" in="SourceGraphic" in2="BackgroundImageFix" mode="normal" result="shape"/><feGaussianBlur id="feGaussianBlur32" result="effect1_foregroundBlur_595_2125" stdDeviation=".564"/></filter><filter id="filter4_f_595_2125" width="16.864" height="11.254" x="108.365" y="49.763" color-interpolation-filters="sRGB" filterUnits="userSpaceOnUse"><feFlood id="feFlood33" flood-opacity="0" result="BackgroundImageFix"/><feBlend id="feBlend33" in="SourceGraphic" in2="BackgroundImageFix" mode="normal" result="shape"/><feGaussianBlur id="feGaussianBlur33" result="effect1_foregroundBlur_595_2125" stdDeviation=".564"/></filter><filter id="filter5_f_595_2125" width="9.77" height="10.27" x="116.477" y="21.552" color-interpolation-filters="sRGB" filterUnits="userSpaceOnUse"><feFlood id="feFlood34" flood-opacity="0" result="BackgroundImageFix"/><feBlend id="feBlend34" in="SourceGraphic" in2="BackgroundImageFix" mode="normal" result="shape"/><feGaussianBlur id="feGaussianBlur34" result="effect1_foregroundBlur_595_2125" stdDeviation=".501"/></filter><filter id="filter6_i_595_2125" width="54.606" height="17.534" x="36.822" y="94.068" color-interpolation-filters="sRGB" filterUnits="userSpaceOnUse"><feFlood id="feFlood35" flood-opacity="0" result="BackgroundImageFix"/><feBlend id="feBlend35" in="SourceGraphic" in2="BackgroundImageFix" mode="normal" result="shape"/><feColorMatrix id="feColorMatrix35" in="SourceAlpha" result="hardAlpha" type="matrix" values="0 0 0 0 0 0 0 0 0 0 0 0 0 0 0 0 0 0 127 0"/><feOffset id="feOffset35" dy="2.505"/><feGaussianBlur id="feGaussianBlur35" stdDeviation="1.528"/><feComposite id="feComposite35" in2="hardAlpha" k1="0" k2="-1" k3="1" k4="0" operator="arithmetic"/><feColorMatrix id="feColorMatrix36" type="matrix" values="0 0 0 0 0.601709 0 0 0 0 0.0808669 0 0 0 0 1 0 0 0 1 0"/><feBlend id="feBlend36" in2="shape" mode="normal" result="effect1_innerShadow_595_2125"/></filter><filter id="filter7_f_595_2125" width="51.657" height="16.382" x="43.908" y="91.012" color-interpolation-filters="sRGB" filterUnits="userSpaceOnUse"><feFlood id="feFlood36" flood-opacity="0" result="BackgroundImageFix"/><feBlend id="feBlend37" in="SourceGraphic" in2="BackgroundImageFix" mode="normal" result="shape"/><feGaussianBlur id="feGaussianBlur37" result="effect1_foregroundBlur_595_2125" stdDeviation="2.906"/></filter><filter id="filter8_f_595_2125" width="34.403" height="21.141" x="32.685" y="90.511" color-interpolation-filters="sRGB" filterUnits="userSpaceOnUse"><feFlood id="feFlood37" flood-opacity="0" result="BackgroundImageFix"/><feBlend id="feBlend38" in="SourceGraphic" in2="BackgroundImageFix" mode="normal" result="shape"/><feGaussianBlur id="feGaussianBlur38" result="effect1_foregroundBlur_595_2125" stdDeviation="2.906"/></filter><filter id="filter9_f_595_2125" width="17.384" height="21.141" x="77.852" y="90.511" color-interpolation-filters="sRGB" filterUnits="userSpaceOnUse"><feFlood id="feFlood38" flood-opacity="0" result="BackgroundImageFix"/><feBlend id="feBlend39" in="SourceGraphic" in2="BackgroundImageFix" mode="normal" result="shape"/><feGaussianBlur id="feGaussianBlur39" result="effect1_foregroundBlur_595_2125" stdDeviation="2.906"/></filter><filter id="filter10_f_595_2125" width="39.822" height="5.06" x="44.213" y="92.415" color-interpolation-filters="sRGB" filterUnits="userSpaceOnUse"><feFlood id="feFlood39" flood-opacity="0" result="BackgroundImageFix"/><feBlend id="feBlend40" in="SourceGraphic" in2="BackgroundImageFix" mode="normal" result="shape"/><feGaussianBlur id="feGaussianBlur40" result="effect1_foregroundBlur_595_2125" stdDeviation=".827"/></filter><filter id="filter11_i_595_2125" width="83.413" height="78.654" x="22.294" y="7.9" color-interpolation-filters="sRGB" filterUnits="userSpaceOnUse"><feFlood id="feFlood40" flood-opacity="0" result="BackgroundImageFix"/><feBlend id="feBlend41" in="SourceGraphic" in2="BackgroundImageFix" mode="normal" result="shape"/><feColorMatrix id="feColorMatrix41" in="SourceAlpha" result="hardAlpha" type="matrix" values="0 0 0 0 0 0 0 0 0 0 0 0 0 0 0 0 0 0 127 0"/><feOffset id="feOffset41" dy="2.755"/><feGaussianBlur id="feGaussianBlur41" stdDeviation="1.716"/><feComposite id="feComposite41" in2="hardAlpha" k1="0" k2="-1" k3="1" k4="0" operator="arithmetic"/><feColorMatrix id="feColorMatrix42" type="matrix" values="0 0 0 0 1 0 0 0 0 0.94473 0 0 0 0 0.763127 0 0 0 1 0"/><feBlend id="feBlend42" in2="shape" mode="normal" result="effect1_innerShadow_595_2125"/></filter><filter id="filter12_i_595_2125" width="81.659" height="17.534" x="23.296" y="105.09" color-interpolation-filters="sRGB" filterUnits="userSpaceOnUse"><feFlood id="feFlood42" flood-opacity="0" result="BackgroundImageFix"/><feBlend id="feBlend43" in="SourceGraphic" in2="BackgroundImageFix" mode="normal" result="shape"/><feColorMatrix id="feColorMatrix43" in="SourceAlpha" result="hardAlpha" type="matrix" values="0 0 0 0 0 0 0 0 0 0 0 0 0 0 0 0 0 0 127 0"/><feOffset id="feOffset43" dy="2.505"/><feGaussianBlur id="feGaussianBlur43" stdDeviation="1.528"/><feComposite id="feComposite43" in2="hardAlpha" k1="0" k2="-1" k3="1" k4="0" operator="arithmetic"/><feColorMatrix id="feColorMatrix44" type="matrix" values="0 0 0 0 0.0808669 0 0 0 0 0.126824 0 0 0 0 1 0 0 0 1 0"/><feBlend id="feBlend44" in2="shape" mode="normal" result="effect1_innerShadow_595_2125"/></filter><filter id="filter13_f_595_2125" width="71.49" height="16.382" x="36.772" y="102.034" color-interpolation-filters="sRGB" filterUnits="userSpaceOnUse"><feFlood id="feFlood44" flood-opacity="0" result="BackgroundImageFix"/><feBlend id="feBlend45" in="SourceGraphic" in2="BackgroundImageFix" mode="normal" result="shape"/><feGaussianBlur id="feGaussianBlur45" result="effect1_foregroundBlur_595_2125" stdDeviation="2.906"/></filter><filter id="filter14_f_595_2125" width="45.689" height="21.141" x="19.989" y="101.533" color-interpolation-filters="sRGB" filterUnits="userSpaceOnUse"><feFlood id="feFlood45" flood-opacity="0" result="BackgroundImageFix"/><feBlend id="feBlend46" in="SourceGraphic" in2="BackgroundImageFix" mode="normal" result="shape"/><feGaussianBlur id="feGaussianBlur46" result="effect1_foregroundBlur_595_2125" stdDeviation="2.906"/></filter><filter id="filter15_f_595_2125" width="57.913" height="5.06" x="35.168" y="103.437" color-interpolation-filters="sRGB" filterUnits="userSpaceOnUse"><feFlood id="feFlood46" flood-opacity="0" result="BackgroundImageFix"/><feBlend id="feBlend47" in="SourceGraphic" in2="BackgroundImageFix" mode="normal" result="shape"/><feGaussianBlur id="feGaussianBlur47" result="effect1_foregroundBlur_595_2125" stdDeviation=".827"/></filter><filter id="filter16_f_595_2125" width="101.148" height="50.799" x="13.927" y="40.113" color-interpolation-filters="sRGB" filterUnits="userSpaceOnUse"><feFlood id="feFlood47" flood-opacity="0" result="BackgroundImageFix"/><feBlend id="feBlend48" in="SourceGraphic" in2="BackgroundImageFix" mode="normal" result="shape"/><feGaussianBlur id="feGaussianBlur48" result="effect1_foregroundBlur_595_2125" stdDeviation="5.06"/></filter><filter id="filter17_f_595_2125" width="51.56" height="87.887" x="51.419" y="-8.481" color-interpolation-filters="sRGB" filterUnits="userSpaceOnUse"><feFlood id="feFlood48" flood-opacity="0" result="BackgroundImageFix"/><feBlend id="feBlend49" in="SourceGraphic" in2="BackgroundImageFix" mode="normal" result="shape"/><feGaussianBlur id="feGaussianBlur49" result="effect1_foregroundBlur_595_2125" stdDeviation="5.799"/></filter><filter id="filter18_f_595_2125" width="25.602" height="42.067" x="23.131" y="-5.125" color-interpolation-filters="sRGB" filterUnits="userSpaceOnUse"><feFlood id="feFlood49" flood-opacity="0" result="BackgroundImageFix"/><feBlend id="feBlend50" in="SourceGraphic" in2="BackgroundImageFix" mode="normal" result="shape"/><feGaussianBlur id="feGaussianBlur50" result="effect1_foregroundBlur_595_2125" stdDeviation="2.993"/></filter><filter id="filter19_di_595_2125" width="58.068" height="56.057" x="34.966" y="15.011" color-interpolation-filters="sRGB" filterUnits="userSpaceOnUse"><feFlood id="feFlood50" flood-opacity="0" result="BackgroundImageFix"/><feColorMatrix id="feColorMatrix50" in="SourceAlpha" result="hardAlpha" type="matrix" values="0 0 0 0 0 0 0 0 0 0 0 0 0 0 0 0 0 0 127 0"/><feOffset id="feOffset50" dy="1.503"/><feGaussianBlur id="feGaussianBlur51" stdDeviation="2.242"/><feComposite id="feComposite51" in2="hardAlpha" operator="out"/><feColorMatrix id="feColorMatrix51" type="matrix" values="0 0 0 0 0 0 0 0 0 0 0 0 0 0 0 0 0 0 0.1 0"/><feBlend id="feBlend51" in2="BackgroundImageFix" mode="normal" result="effect1_dropShadow_595_2125"/><feBlend id="feBlend52" in="SourceGraphic" in2="effect1_dropShadow_595_2125" mode="normal" result="shape"/><feColorMatrix id="feColorMatrix52" in="SourceAlpha" result="hardAlpha" type="matrix" values="0 0 0 0 0 0 0 0 0 0 0 0 0 0 0 0 0 0 127 0"/><feOffset id="feOffset52" dx="1.252" dy="1.002"/><feGaussianBlur id="feGaussianBlur52" stdDeviation=".501"/><feComposite id="feComposite52" in2="hardAlpha" k1="0" k2="-1" k3="1" k4="0" operator="arithmetic"/><feColorMatrix id="feColorMatrix53" type="matrix" values="0 0 0 0 1 0 0 0 0 0.957873 0 0 0 0 0.789363 0 0 0 1 0"/><feBlend id="feBlend53" in2="shape" mode="normal" result="effect2_innerShadow_595_2125"/></filter><linearGradient id="paint0_linear_595_2125" x1="27.805" x2="0" y1="40.965" y2="40.965" gradientUnits="userSpaceOnUse"><stop id="stop53" stop-color="#FFAC31"/><stop id="stop54" offset="1" stop-color="#FFEA00"/></linearGradient><linearGradient id="paint1_linear_595_2125" x1="27.805" x2="0" y1="40.965" y2="40.965" gradientUnits="userSpaceOnUse"><stop id="stop55" stop-color="#FFAC31"/><stop id="stop56" offset="1" stop-color="#FFEA00"/></linearGradient><linearGradient id="paint2_linear_595_2125" x1="100.195" x2="128" y1="40.965" y2="40.965" gradientUnits="userSpaceOnUse"><stop id="stop57" stop-color="#FFAC31"/><stop id="stop58" offset="1" stop-color="#FFEA00"/></linearGradient><linearGradient id="paint3_linear_595_2125" x1="100.195" x2="128" y1="40.965" y2="40.965" gradientUnits="userSpaceOnUse"><stop id="stop59" stop-color="#FFAC31"/><stop id="stop60" offset="1" stop-color="#FFEA00"/></linearGradient><linearGradient id="paint4_linear_595_2125" x1="64.126" x2="64.126" y1="109.098" y2="94.068" gradientUnits="userSpaceOnUse"><stop id="stop61" stop-color="#80F"/><stop id="stop62" offset="1" stop-color="#B039FF"/></linearGradient><linearGradient id="paint5_linear_595_2125" x1="64.125" x2="64.125" y1="109.098" y2="94.068" gradientUnits="userSpaceOnUse"><stop id="stop63" stop-color="#FFB300"/><stop id="stop64" offset="1" stop-color="#FFD939"/></linearGradient><linearGradient id="paint6_linear_595_2125" x1="61.277" x2="38.496" y1="101.082" y2="101.082" gradientUnits="userSpaceOnUse"><stop id="stop65" stop-color="#E3C1FF"/><stop id="stop66" offset="1" stop-color="#8B26FF"/></linearGradient><linearGradient id="paint7_linear_595_2125" x1="89.424" x2="83.663" y1="101.082" y2="101.082" gradientUnits="userSpaceOnUse"><stop id="stop67" stop-color="#E3C1FF"/><stop id="stop68" offset="1" stop-color="#8B26FF"/></linearGradient><linearGradient id="paint8_linear_595_2125" x1="19.539" x2="107.586" y1="37.834" y2="37.834" gradientUnits="userSpaceOnUse"><stop id="stop69" stop-color="#FFEA3C"/><stop id="stop70" offset=".61" stop-color="#FFBC00"/><stop id="stop71" offset=".74" stop-color="#FFBF00"/><stop id="stop72" offset="1" stop-color="#FFE400"/></linearGradient><linearGradient id="paint9_linear_595_2125" x1="55.608" x2="72.642" y1="88.558" y2="88.558" gradientUnits="userSpaceOnUse"><stop id="stop73" stop-color="#FFDF24"/><stop id="stop74" offset=".736" stop-color="#FFA800"/><stop id="stop75" offset="1" stop-color="#FAD775"/></linearGradient><linearGradient id="paint10_linear_595_2125" x1="64.126" x2="64.126" y1="120.119" y2="105.09" gradientUnits="userSpaceOnUse"><stop id="stop76" stop-color="#03F"/><stop id="stop77" offset="1" stop-color="#3964FF"/></linearGradient><linearGradient id="paint11_linear_595_2125" x1="64.125" x2="64.125" y1="120.119" y2="105.09" gradientUnits="userSpaceOnUse"><stop id="stop78" stop-color="#FFB300"/><stop id="stop79" offset="1" stop-color="#FFD939"/></linearGradient><linearGradient id="paint12_linear_595_2125" x1="59.866" x2="25.8" y1="112.104" y2="112.104" gradientUnits="userSpaceOnUse"><stop id="stop80" stop-color="#C1C3FF"/><stop id="stop81" offset="1" stop-color="#262DFF"/></linearGradient><linearGradient id="paint13_linear_595_2125" x1="64.126" x2="64.126" y1="83.047" y2="89.56" gradientUnits="userSpaceOnUse"><stop id="stop82" stop-color="#FFC900"/><stop id="stop83" offset=".702" stop-color="#FFAC00"/><stop id="stop84" offset=".966" stop-color="#FFBC00"/></linearGradient><linearGradient id="paint14_linear_595_2125" x1="19.538" x2="107.585" y1="37.834" y2="37.834" gradientUnits="userSpaceOnUse"><stop id="stop85" stop-color="#FFEA3C"/><stop id="stop86" offset=".61" stop-color="#FFBC00"/><stop id="stop87" offset=".74" stop-color="#FFBF00"/><stop id="stop88" offset="1" stop-color="#FFE400"/></linearGradient><linearGradient id="paint15_linear_595_2125" x1="64.501" x2="64.501" y1="80.792" y2="50.233" gradientUnits="userSpaceOnUse"><stop id="stop89" stop-color="#E49B25"/><stop id="stop90" offset="1" stop-color="#FFC700"/></linearGradient><linearGradient id="paint16_linear_595_2125" x1="33.816" x2="94.184" y1="43.595" y2="43.595" gradientUnits="userSpaceOnUse"><stop id="stop91" stop-color="#FFEEA6"/><stop id="stop92" offset=".5" stop-color="#FFD800"/><stop id="stop93" offset="1" stop-color="#FFDD03"/></linearGradient><clipPath id="clip0_595_2125"><rect id="rect93" width="128" height="128" x="0" y="0" fill="#fff"/></clipPath></defs></svg>