<svg xmlns="http://www.w3.org/2000/svg" xmlns:svg="http://www.w3.org/2000/svg" id="svg77" width="256" height="256" fill="none" version="1.1" viewBox="0 0 256 256"><g id="g19" clip-path="url(#clip0_590_2159)" transform="matrix(2.0000042,0,0,2.0000042,0,-0.1999727)"><g id="g1" filter="url(#filter0_ii_590_2159)"><path id="path1" fill="url(#paint0_linear_590_2159)" d="M 66.0422,14.2721 C 50.2464,14.49 53.2876,27.1629 56.7826,33.4721 L 104.442,32.6552 C 114.383,20.5361 101.174,9.09776 93.0039,13.0466 83.4719,0.927528 71.3528,7.19127 66.0422,14.2721 Z" style="fill:url(#paint0_linear_590_2159)"/></g><g id="g2" filter="url(#filter1_iii_590_2159)"><path id="path2" fill="url(#paint1_linear_590_2159)" d="m 78.6296,23.8042 c -19.3481,0 -25.0553,15.1603 -25.6,22.4681 C 48.2637,45.0468 36.8254,46.9532 34.102,54.5788 33.0127,45.4554 23.7531,34.8341 11.4978,37.966 1.69349,40.4715 3.96304,52.2639 6.32335,57.8469 c -14.43406,15.9319 -6e-5,20.2893 2.58719,21.2425 -2.72341,5.0383 2.45106,7.2171 5.71916,6.8085 -2.8596,1.3618 -5.17447,4.4937 -4.62978,6.5362 1.08938,4.1396 11.89208,1.7249 17.15738,0 C 20.6212,110.545 52.7575,128.792 85.8467,118.987 114.306,108.094 116.455,73.915 112.264,51.4468 108.859,33.2 98.7829,23.8042 78.6296,23.8042 Z" style="fill:url(#paint1_linear_590_2159)"/></g><mask id="mask0_590_2159" width="115" height="99" x="-1" y="23" maskUnits="userSpaceOnUse"><path id="path3" fill="url(#paint2_linear_590_2159)" d="M 78.6292,23.8041 C 59.281,23.8041 53.5738,38.9644 53.0291,46.2722 48.2633,45.0467 36.8249,46.9531 34.1015,54.5786 33.0122,45.4552 23.7526,34.8339 11.4973,37.9659 1.693,40.4714 3.96255,52.2637 6.32286,57.8467 c -14.43406,15.932 -6e-5,20.2894 2.58719,21.2426 -2.72341,5.0383 2.45105,7.217 5.71915,6.8085 -2.8596,1.3617 -5.17446,4.4936 -4.62978,6.5362 1.08938,4.1396 11.89218,1.7248 17.15738,0 -6.5361,18.111 25.6002,36.357 58.6894,26.553 C 114.306,108.094 116.455,73.9148 112.263,51.4467 108.859,33.1998 98.7824,23.804 78.6292,23.8041 Z"/></mask><g id="g6" mask="url(#mask0_590_2159)"><g id="g4" filter="url(#filter2_f_590_2159)"><path id="path4" fill="url(#paint3_linear_590_2159)" d="M 130.723,73.7404 C 89.019,101.016 29.4123,92.0527 4.82185,84.1614 -12.464,87.3708 -31.9549,98.9547 28.3687,119.616 103.773,145.442 126.776,92.4302 130.723,73.7404 Z" style="fill:url(#paint3_linear_590_2159)"/></g><g id="g5" filter="url(#filter3_f_590_2159)"><path id="path5" fill="url(#paint4_linear_590_2159)" d="m 73.6681,21.6211 c 2.2015,-0.2027 4.5786,-0.3094 6.8658,0.1809 5.8743,0.358 14.7062,1.4227 30.4451,4.5851 29.14,5.8554 9.259,61.4128 3.949,91.3699 -5.311,29.958 -66.043,13.617 -78.843,13.073 -12.8,-0.545 -23.4213,-37.0386 -6.6723,-25.873 16.7489,11.166 29.4128,-2.314 50.1107,-15.3868 C 100.221,76.4978 94.0936,58.7957 91.3702,37.9616 89.8867,26.6127 85.4148,22.8483 80.5339,21.802 77.7072,21.6298 75.5653,21.6211 73.6681,21.6211 Z" style="fill:url(#paint4_linear_590_2159)"/></g></g><ellipse id="ellipse6" cx="89.872" cy="50.494" fill="url(#paint5_linear_590_2159)" rx="3.54" ry="7.353" style="fill:url(#paint5_linear_590_2159)"/><g id="g7" filter="url(#filter4_i_590_2159)"><path id="path6" fill="url(#paint6_linear_590_2159)" d="m 98.5871,85.217 c -1.634,-7.8434 1.5889,-14.071 3.4039,-16.2043 l 13.754,1.3617 c 5.446,13.3447 -2.588,20.5617 -6.128,15.3873 -6.672,4.2212 -10.3491,2.7234 -11.0299,-0.5447 z" style="fill:url(#paint6_linear_590_2159)"/></g><g id="g8" filter="url(#filter5_dii_590_2159)"><path id="path7" fill="url(#paint7_linear_590_2159)" d="m 43.71,82.0851 c -6.754,-5.9915 0.3719,-9.0676 3.4045,-9.9406 8.9873,-2.587 38.2639,-8.1701 40.8511,9.9406 C 89.872,104.689 65.2251,105.597 56.9187,105.234 33.6336,104.009 29.2763,86.5787 35.2674,82.0851 Z" style="fill:url(#paint7_linear_590_2159)"/></g><mask id="mask1_590_2159" width="57" height="37" x="32" y="69" maskUnits="userSpaceOnUse"><path id="path8" fill="url(#paint8_linear_590_2159)" d="m 43.71,82.0851 c -6.754,-5.9915 0.3719,-9.0676 3.4045,-9.9406 8.9873,-2.587 38.2639,-8.1701 40.8511,9.9406 C 89.872,104.689 65.2251,105.597 56.9187,105.234 33.6336,104.009 29.2763,86.5787 35.2674,82.0851 Z"/></mask><g id="g10" mask="url(#mask1_590_2159)"><g id="g9" filter="url(#filter6_f_590_2159)"><path id="path9" fill="url(#paint9_linear_590_2159)" d="m 59.0975,92.3958 c -9.6954,0.5446 -23.8299,-7.9433 -29.6852,-12.2554 -1.0894,2.5873 -2.0425,10.3762 2.8596,20.8336 6.1277,13.073 50.1107,9.532 62.366,3.541 12.2551,-5.9916 -1.634,-37.0384 -3.9489,-28.1873 -2.3149,8.851 -19.4724,15.3872 -31.5915,16.0681 z" style="fill:url(#paint9_linear_590_2159)"/></g></g><g id="g11" filter="url(#filter7_dii_590_2159)"><path id="path10" fill="url(#paint10_radial_590_2159)" d="m 101.557,68.293 c -3.2151,-7.5964 -1.432,-13.2052 1.355,-16.7593 2.442,-3.1151 6.868,-3.5894 10.431,-1.8653 6.071,2.9373 10.028,7.6948 13.524,12.5687 0.65,0.9061 0.494,2.167 -0.386,2.8528 -9.534,7.4352 -17.958,6.1486 -22.579,5.1174 -1.04,-0.2322 -1.929,-0.9324 -2.345,-1.9143 z" style="fill:url(#paint10_radial_590_2159)"/></g><mask id="mask2_590_2159" width="29" height="24" x="99" y="48" maskUnits="userSpaceOnUse"><path id="path11" fill="url(#paint11_radial_590_2159)" d="m 101.556,68.2929 c -3.2151,-7.5964 -1.432,-13.2052 1.355,-16.7593 2.442,-3.1151 6.868,-3.5895 10.431,-1.8653 6.071,2.9373 10.028,7.6948 13.524,12.5686 0.65,0.9061 0.494,2.1671 -0.386,2.8528 -9.534,7.4353 -17.958,6.1487 -22.579,5.1175 -1.04,-0.2323 -1.929,-0.9324 -2.345,-1.9143 z"/></mask><g id="g13" mask="url(#mask2_590_2159)"><g id="g12" filter="url(#filter8_f_590_2159)"><path id="path12" fill="url(#paint12_linear_590_2159)" d="m 126.163,62.5283 c -15.368,3.6811 -24.902,-2.4716 -27.7474,-6.0081 -5.3026,4.2006 -2.8154,16.6722 0.6801,22.7711 3.4953,6.0989 36.2733,-5.7249 40.1493,-7.7885 3.876,-2.0635 6.128,-13.5757 -13.082,-8.9745 z" style="fill:url(#paint12_linear_590_2159)"/></g><path id="path13" fill="url(#paint13_linear_590_2159)" d="m 105.667,51.983 c 2.587,0.4993 9.668,2.1488 15.251,5.5531 -5.447,-6.1277 -11.166,-9.7744 -15.251,-5.5531 z" opacity=".69" style="fill:url(#paint13_linear_590_2159)"/></g><mask id="mask3_590_2159" width="55" height="28" x="53" y="6" maskUnits="userSpaceOnUse"><path id="path14" fill="url(#paint14_linear_590_2159)" d="M 66.0422,14.2721 C 50.2464,14.49 53.2876,27.1629 56.7826,33.4721 L 104.442,32.6552 C 114.383,20.5361 101.174,9.09776 93.0039,13.0466 83.4719,0.927528 71.3528,7.19127 66.0422,14.2721 Z"/></mask><g id="g17" mask="url(#mask3_590_2159)"><g id="g15" filter="url(#filter9_f_590_2159)"><path id="path15" fill="#d9d9d9" d="M 87.5575,13.417 C 85.0519,9.71318 78.8879,9.60424 76.1191,10.0128 c 2.4511,-1.63411 7.1355,-2.84442 12.2554,0 3.6766,2.0425 2.3149,8.034 -0.817,3.4042 z"/></g><g id="g16" filter="url(#filter10_f_590_2159)" opacity=".66"><path id="path16" fill="#d9d9d9" d="m 104.243,22.366 c -0.398,-2.2333 -3.233,-3.5542 -4.6011,-3.9354 1.4731,-0.2524 3.8941,0.152 5.6811,2.5257 1.283,1.7046 -0.583,4.2013 -1.08,1.4097 z"/></g></g><g id="g18" filter="url(#filter11_f_590_2159)"><path id="path17" fill="#fff" d="M 69.9912,31.0947 C 75.3269,30.2621 87.947,29.8913 95.7418,35.068 101.425,29.6188 79.8507,24.5102 69.9912,31.0947 Z"/></g></g><defs id="defs77"><filter id="filter0_ii_590_2159" width="56.742" height="29.179" x="52.89" y="6.2" color-interpolation-filters="sRGB" filterUnits="userSpaceOnUse"><feFlood id="feFlood19" flood-opacity="0" result="BackgroundImageFix"/><feBlend id="feBlend19" in="SourceGraphic" in2="BackgroundImageFix" mode="normal" result="shape"/><feColorMatrix id="feColorMatrix19" in="SourceAlpha" result="hardAlpha" type="matrix" values="0 0 0 0 0 0 0 0 0 0 0 0 0 0 0 0 0 0 127 0"/><feOffset id="feOffset19" dx="2.723"/><feGaussianBlur id="feGaussianBlur19" stdDeviation=".817"/><feComposite id="feComposite19" in2="hardAlpha" k1="0" k2="-1" k3="1" k4="0" operator="arithmetic"/><feColorMatrix id="feColorMatrix20" type="matrix" values="0 0 0 0 0 0 0 0 0 0 0 0 0 0 0 0 0 0 0.2 0"/><feBlend id="feBlend20" in2="shape" mode="normal" result="effect1_innerShadow_590_2159"/><feColorMatrix id="feColorMatrix21" in="SourceAlpha" result="hardAlpha" type="matrix" values="0 0 0 0 0 0 0 0 0 0 0 0 0 0 0 0 0 0 127 0"/><feOffset id="feOffset21" dx="-1.089" dy="1.906"/><feGaussianBlur id="feGaussianBlur21" stdDeviation="1.634"/><feComposite id="feComposite21" in2="hardAlpha" k1="0" k2="-1" k3="1" k4="0" operator="arithmetic"/><feColorMatrix id="feColorMatrix22" type="matrix" values="0 0 0 0 1 0 0 0 0 0.480206 0 0 0 0 0.480206 0 0 0 0.6 0"/><feBlend id="feBlend22" in2="effect1_innerShadow_590_2159" mode="normal" result="effect2_innerShadow_590_2159"/></filter><filter id="filter1_iii_590_2159" width="114.455" height="106.098" x="0" y="19.447" color-interpolation-filters="sRGB" filterUnits="userSpaceOnUse"><feFlood id="feFlood22" flood-opacity="0" result="BackgroundImageFix"/><feBlend id="feBlend23" in="SourceGraphic" in2="BackgroundImageFix" mode="normal" result="shape"/><feColorMatrix id="feColorMatrix23" in="SourceAlpha" result="hardAlpha" type="matrix" values="0 0 0 0 0 0 0 0 0 0 0 0 0 0 0 0 0 0 127 0"/><feOffset id="feOffset23" dx=".545" dy="-5.174"/><feGaussianBlur id="feGaussianBlur23" stdDeviation="2.179"/><feComposite id="feComposite23" in2="hardAlpha" k1="0" k2="-1" k3="1" k4="0" operator="arithmetic"/><feColorMatrix id="feColorMatrix24" type="matrix" values="0 0 0 0 1 0 0 0 0 0.852944 0 0 0 0 0.702655 0 0 0 1 0"/><feBlend id="feBlend24" in2="shape" mode="normal" result="effect1_innerShadow_590_2159"/><feColorMatrix id="feColorMatrix25" in="SourceAlpha" result="hardAlpha" type="matrix" values="0 0 0 0 0 0 0 0 0 0 0 0 0 0 0 0 0 0 127 0"/><feOffset id="feOffset25" dy="1.089"/><feGaussianBlur id="feGaussianBlur25" stdDeviation="2.669"/><feComposite id="feComposite25" in2="hardAlpha" k1="0" k2="-1" k3="1" k4="0" operator="arithmetic"/><feColorMatrix id="feColorMatrix26" type="matrix" values="0 0 0 0 0.72549 0 0 0 0 0.509804 0 0 0 0 0.286275 0 0 0 0.2 0"/><feBlend id="feBlend26" in2="effect1_innerShadow_590_2159" mode="normal" result="effect2_innerShadow_590_2159"/><feColorMatrix id="feColorMatrix27" in="SourceAlpha" result="hardAlpha" type="matrix" values="0 0 0 0 0 0 0 0 0 0 0 0 0 0 0 0 0 0 127 0"/><feOffset id="feOffset27" dy="3.813"/><feGaussianBlur id="feGaussianBlur27" stdDeviation="4.357"/><feComposite id="feComposite27" in2="hardAlpha" k1="0" k2="-1" k3="1" k4="0" operator="arithmetic"/><feColorMatrix id="feColorMatrix28" type="matrix" values="0 0 0 0 1 0 0 0 0 0.678438 0 0 0 0 0.34375 0 0 0 1 0"/><feBlend id="feBlend28" in2="effect2_innerShadow_590_2159" mode="normal" result="effect3_innerShadow_590_2159"/></filter><filter id="filter2_f_590_2159" width="182.577" height="92.16" x="-32.191" y="54.077" color-interpolation-filters="sRGB" filterUnits="userSpaceOnUse"><feFlood id="feFlood28" flood-opacity="0" result="BackgroundImageFix"/><feBlend id="feBlend29" in="SourceGraphic" in2="BackgroundImageFix" mode="normal" result="shape"/><feGaussianBlur id="feGaussianBlur29" result="effect1_foregroundBlur_590_2159" stdDeviation="9.832"/></filter><filter id="filter3_f_590_2159" width="123.403" height="132.015" x="11.935" y="12.6" color-interpolation-filters="sRGB" filterUnits="userSpaceOnUse"><feFlood id="feFlood29" flood-opacity="0" result="BackgroundImageFix"/><feBlend id="feBlend30" in="SourceGraphic" in2="BackgroundImageFix" mode="normal" result="shape"/><feGaussianBlur id="feGaussianBlur30" result="effect1_foregroundBlur_590_2159" stdDeviation="4.426"/></filter><filter id="filter4_i_590_2159" width="19.446" height="22.604" x="98.139" y="65.745" color-interpolation-filters="sRGB" filterUnits="userSpaceOnUse"><feFlood id="feFlood30" flood-opacity="0" result="BackgroundImageFix"/><feBlend id="feBlend31" in="SourceGraphic" in2="BackgroundImageFix" mode="normal" result="shape"/><feColorMatrix id="feColorMatrix31" in="SourceAlpha" result="hardAlpha" type="matrix" values="0 0 0 0 0 0 0 0 0 0 0 0 0 0 0 0 0 0 127 0"/><feOffset id="feOffset31" dy="-3.54"/><feGaussianBlur id="feGaussianBlur31" stdDeviation="1.634"/><feComposite id="feComposite31" in2="hardAlpha" k1="0" k2="-1" k3="1" k4="0" operator="arithmetic"/><feColorMatrix id="feColorMatrix32" type="matrix" values="0 0 0 0 0.771315 0 0 0 0 0 0 0 0 0 0.0497624 0 0 0 1 0"/><feBlend id="feBlend32" in2="shape" mode="normal" result="effect1_innerShadow_590_2159"/></filter><filter id="filter5_dii_590_2159" width="59.584" height="42.56" x="30.665" y="66.539" color-interpolation-filters="sRGB" filterUnits="userSpaceOnUse"><feFlood id="feFlood32" flood-opacity="0" result="BackgroundImageFix"/><feColorMatrix id="feColorMatrix33" in="SourceAlpha" result="hardAlpha" type="matrix" values="0 0 0 0 0 0 0 0 0 0 0 0 0 0 0 0 0 0 127 0"/><feOffset id="feOffset33" dy="1.634"/><feGaussianBlur id="feGaussianBlur33" stdDeviation="1.089"/><feComposite id="feComposite33" in2="hardAlpha" operator="out"/><feColorMatrix id="feColorMatrix34" type="matrix" values="0 0 0 0 1 0 0 0 0 0.778114 0 0 0 0 0.778114 0 0 0 0.08 0"/><feBlend id="feBlend34" in2="BackgroundImageFix" mode="normal" result="effect1_dropShadow_590_2159"/><feBlend id="feBlend35" in="SourceGraphic" in2="effect1_dropShadow_590_2159" mode="normal" result="shape"/><feColorMatrix id="feColorMatrix35" in="SourceAlpha" result="hardAlpha" type="matrix" values="0 0 0 0 0 0 0 0 0 0 0 0 0 0 0 0 0 0 127 0"/><feOffset id="feOffset35" dy="-2.723"/><feGaussianBlur id="feGaussianBlur35" stdDeviation="1.906"/><feComposite id="feComposite35" in2="hardAlpha" k1="0" k2="-1" k3="1" k4="0" operator="arithmetic"/><feColorMatrix id="feColorMatrix36" type="matrix" values="0 0 0 0 0.584454 0 0 0 0 0.474205 0 0 0 0 0.363956 0 0 0 1 0"/><feBlend id="feBlend36" in2="shape" mode="normal" result="effect2_innerShadow_590_2159"/><feColorMatrix id="feColorMatrix37" in="SourceAlpha" result="hardAlpha" type="matrix" values="0 0 0 0 0 0 0 0 0 0 0 0 0 0 0 0 0 0 127 0"/><feOffset id="feOffset37" dx="1.362" dy=".817"/><feGaussianBlur id="feGaussianBlur37" stdDeviation="1.362"/><feComposite id="feComposite37" in2="hardAlpha" k1="0" k2="-1" k3="1" k4="0" operator="arithmetic"/><feColorMatrix id="feColorMatrix38" type="matrix" values="0 0 0 0 0.95797 0 0 0 0 0.73705 0 0 0 0 0.51171 0 0 0 1 0"/><feBlend id="feBlend38" in2="effect2_innerShadow_590_2159" mode="normal" result="effect3_innerShadow_590_2159"/></filter><filter id="filter6_f_590_2159" width="84.382" height="48.432" x="21.89" y="68.106" color-interpolation-filters="sRGB" filterUnits="userSpaceOnUse"><feFlood id="feFlood38" flood-opacity="0" result="BackgroundImageFix"/><feBlend id="feBlend39" in="SourceGraphic" in2="BackgroundImageFix" mode="normal" result="shape"/><feGaussianBlur id="feGaussianBlur39" result="effect1_foregroundBlur_590_2159" stdDeviation="3.323"/></filter><filter id="filter7_dii_590_2159" width="31.785" height="28.314" x="97.659" y="46.501" color-interpolation-filters="sRGB" filterUnits="userSpaceOnUse"><feFlood id="feFlood39" flood-opacity="0" result="BackgroundImageFix"/><feColorMatrix id="feColorMatrix39" in="SourceAlpha" result="hardAlpha" type="matrix" values="0 0 0 0 0 0 0 0 0 0 0 0 0 0 0 0 0 0 127 0"/><feOffset id="feOffset39" dy="1.634"/><feGaussianBlur id="feGaussianBlur40" stdDeviation="1.089"/><feComposite id="feComposite40" in2="hardAlpha" operator="out"/><feColorMatrix id="feColorMatrix40" type="matrix" values="0 0 0 0 0 0 0 0 0 0 0 0 0 0 0 0 0 0 0.2 0"/><feBlend id="feBlend40" in2="BackgroundImageFix" mode="normal" result="effect1_dropShadow_590_2159"/><feBlend id="feBlend41" in="SourceGraphic" in2="effect1_dropShadow_590_2159" mode="normal" result="shape"/><feColorMatrix id="feColorMatrix41" in="SourceAlpha" result="hardAlpha" type="matrix" values="0 0 0 0 0 0 0 0 0 0 0 0 0 0 0 0 0 0 127 0"/><feOffset id="feOffset41" dy="-2.723"/><feGaussianBlur id="feGaussianBlur41" stdDeviation="1.089"/><feComposite id="feComposite41" in2="hardAlpha" k1="0" k2="-1" k3="1" k4="0" operator="arithmetic"/><feColorMatrix id="feColorMatrix42" type="matrix" values="0 0 0 0 0.551833 0 0 0 0 0.449995 0 0 0 0 0.116008 0 0 0 1 0"/><feBlend id="feBlend42" in2="shape" mode="normal" result="effect2_innerShadow_590_2159"/><feColorMatrix id="feColorMatrix43" in="SourceAlpha" result="hardAlpha" type="matrix" values="0 0 0 0 0 0 0 0 0 0 0 0 0 0 0 0 0 0 127 0"/><feOffset id="feOffset43" dy="1.089"/><feGaussianBlur id="feGaussianBlur43" stdDeviation="1.089"/><feComposite id="feComposite43" in2="hardAlpha" k1="0" k2="-1" k3="1" k4="0" operator="arithmetic"/><feColorMatrix id="feColorMatrix44" type="matrix" values="0 0 0 0 1 0 0 0 0 1 0 0 0 0 1 0 0 0 0.4 0"/><feBlend id="feBlend44" in2="effect2_innerShadow_590_2159" mode="normal" result="effect3_innerShadow_590_2159"/></filter><filter id="filter8_f_590_2159" width="53.168" height="31.146" x="92.031" y="53.198" color-interpolation-filters="sRGB" filterUnits="userSpaceOnUse"><feFlood id="feFlood44" flood-opacity="0" result="BackgroundImageFix"/><feBlend id="feBlend45" in="SourceGraphic" in2="BackgroundImageFix" mode="normal" result="shape"/><feGaussianBlur id="feGaussianBlur45" result="effect1_foregroundBlur_590_2159" stdDeviation="1.661"/></filter><filter id="filter9_f_590_2159" width="19.747" height="12.111" x="73.477" y="5.662" color-interpolation-filters="sRGB" filterUnits="userSpaceOnUse"><feFlood id="feFlood45" flood-opacity="0" result="BackgroundImageFix"/><feBlend id="feBlend46" in="SourceGraphic" in2="BackgroundImageFix" mode="normal" result="shape"/><feGaussianBlur id="feGaussianBlur46" result="effect1_foregroundBlur_590_2159" stdDeviation="1.321"/></filter><filter id="filter10_f_590_2159" width="11.407" height="10.539" x="97" y="15.723" color-interpolation-filters="sRGB" filterUnits="userSpaceOnUse"><feFlood id="feFlood46" flood-opacity="0" result="BackgroundImageFix"/><feBlend id="feBlend47" in="SourceGraphic" in2="BackgroundImageFix" mode="normal" result="shape"/><feGaussianBlur id="feGaussianBlur47" result="effect1_foregroundBlur_590_2159" stdDeviation="1.321"/></filter><filter id="filter11_f_590_2159" width="35.077" height="15.469" x="65.797" y="23.793" color-interpolation-filters="sRGB" filterUnits="userSpaceOnUse"><feFlood id="feFlood47" flood-opacity="0" result="BackgroundImageFix"/><feBlend id="feBlend48" in="SourceGraphic" in2="BackgroundImageFix" mode="normal" result="shape"/><feGaussianBlur id="feGaussianBlur48" result="effect1_foregroundBlur_590_2159" stdDeviation="2.097"/></filter><linearGradient id="paint0_linear_590_2159" x1="80.989" x2="80.989" y1="6.2" y2="33.472" gradientUnits="userSpaceOnUse"><stop id="stop48" stop-color="#FFB9BC"/><stop id="stop49" offset="1" stop-color="#DF0818"/></linearGradient><linearGradient id="paint1_linear_590_2159" x1="78.536" x2="35.374" y1="23.804" y2="121.732" gradientUnits="userSpaceOnUse"><stop id="stop50" stop-color="#FFEA00"/><stop id="stop51" offset="1" stop-color="#FF9932"/></linearGradient><linearGradient id="paint2_linear_590_2159" x1="56.954" x2="56.954" y1="23.804" y2="121.732" gradientUnits="userSpaceOnUse"><stop id="stop52" stop-color="#BC854D"/><stop id="stop53" offset="1" stop-color="#664524"/></linearGradient><linearGradient id="paint3_linear_590_2159" x1="20" x2="59.097" y1="39" y2="126.574" gradientUnits="userSpaceOnUse"><stop id="stop54" offset=".284" stop-color="#DB4500"/><stop id="stop55" offset="1" stop-color="#C27527"/></linearGradient><linearGradient id="paint4_linear_590_2159" x1="126.366" x2="23.5" y1="32.481" y2="129" gradientUnits="userSpaceOnUse"><stop id="stop56" stop-color="#FFBF7B"/><stop id="stop57" offset="1" stop-color="#FFCF07"/></linearGradient><linearGradient id="paint5_linear_590_2159" x1="89.872" x2="89.872" y1="43.14" y2="61.213" gradientUnits="userSpaceOnUse"><stop id="stop58" stop-color="#020104"/><stop id="stop59" offset="1" stop-color="#351B6A"/></linearGradient><linearGradient id="paint6_linear_590_2159" x1="107.847" x2="107.862" y1="72.923" y2="88.349" gradientUnits="userSpaceOnUse"><stop id="stop60" stop-color="#FF707B"/><stop id="stop61" offset="1" stop-color="#FF6C78"/></linearGradient><linearGradient id="paint7_linear_590_2159" x1="60.459" x2="60.457" y1="71.289" y2="105.287" gradientUnits="userSpaceOnUse"><stop id="stop62" stop-color="#FFD23F"/><stop id="stop63" offset="1" stop-color="#F98A57"/></linearGradient><linearGradient id="paint8_linear_590_2159" x1="60.459" x2="60.457" y1="71.289" y2="105.287" gradientUnits="userSpaceOnUse"><stop id="stop64" stop-color="#94683A"/><stop id="stop65" offset="1" stop-color="#664524"/></linearGradient><linearGradient id="paint9_linear_590_2159" x1="64.081" x2="64.081" y1="74.752" y2="109.894" gradientUnits="userSpaceOnUse"><stop id="stop66" offset=".455" stop-color="#E88E0F"/><stop id="stop67" offset="1" stop-color="#FFC283"/></linearGradient><radialGradient id="paint10_radial_590_2159" cx="0" cy="0" r="1" gradientTransform="matrix(4.9826804,19.048914,-22.956835,6.0048868,108.936,51.9533)" gradientUnits="userSpaceOnUse"><stop id="stop68" stop-color="#FFD900"/><stop id="stop69" offset="1" stop-color="#FFD900"/></radialGradient><radialGradient id="paint11_radial_590_2159" cx="0" cy="0" r="1" gradientTransform="matrix(4.9826804,19.048914,-22.956835,6.0048868,108.935,51.9531)" gradientUnits="userSpaceOnUse"><stop id="stop70" stop-color="#ECCF2A"/><stop id="stop71" offset="1" stop-color="#BA9E00"/></radialGradient><linearGradient id="paint12_linear_590_2159" x1="118.872" x2="118.143" y1="57.133" y2="81.445" gradientUnits="userSpaceOnUse"><stop id="stop72" stop-color="#FFB200"/><stop id="stop73" offset="1" stop-color="#E3E000"/></linearGradient><linearGradient id="paint13_linear_590_2159" x1="113.293" x2="113.293" y1="50.163" y2="57.536" gradientUnits="userSpaceOnUse"><stop id="stop74" stop-color="#fff"/><stop id="stop75" offset="1" stop-color="#fff" stop-opacity=".2"/></linearGradient><linearGradient id="paint14_linear_590_2159" x1="80.989" x2="80.989" y1="6.2" y2="33.472" gradientUnits="userSpaceOnUse"><stop id="stop76" stop-color="#C4595E"/><stop id="stop77" offset="1" stop-color="#832930"/></linearGradient><clipPath id="clip0_590_2159"><rect id="rect77" width="128" height="128" x="0" y="0" fill="#fff"/></clipPath></defs></svg>