<svg xmlns="http://www.w3.org/2000/svg" xmlns:svg="http://www.w3.org/2000/svg" id="svg4" width="256" height="256" fill="none" version="1.1" viewBox="0 0 256 256"><mask id="mask0_19_16" width="256" height="256" x="0" y="0" maskUnits="userSpaceOnUse" style="mask-type:luminance"><path id="path1" fill="#fff" d="M256 0H0V256H256V0Z"/></mask><g id="g4" mask="url(#mask0_19_16)" transform="matrix(0.8515322,0,0,0.8515322,18.990669,22.292621)"><path id="path2" fill="#6e54ff" d="m 128,220.8 c 58.52,0 105.6,-47.08 105.6,-105.6 C 233.6,56.6797 186.52,9.59998 128,9.59998 69.4797,9.59998 22.4,56.6797 22.4,115.2 c 0,58.52 47.0797,105.6 105.6,105.6 z"/><path id="path3" fill="#fff" stroke="#6e54ff" stroke-width="2" d="m 104.269,32 c 9.575,0 17.764,5.921 21.115,14.3002 0.643,0.182 1.103,0.5331 1.354,0.7747 0.609,0.5875 0.809,1.272 0.809,1.272 0.059,0.1741 0.09,0.3155 0.103,0.375 0.027,0.1303 0.04,0.2346 0.044,0.2688 0.006,0.0477 0.01,0.0883 0.012,0.1123 0.004,0.0477 0.008,0.0893 0.009,0.1127 0.004,0.0486 0.005,0.096 0.007,0.1344 0.003,0.0813 0.007,0.1821 0.009,0.2937 0.005,0.2173 0.009,0.5133 0.009,0.8749 0.003,0.08 0.007,0.1645 0.01,0.2531 0.136,-0.2112 0.383,-0.534 0.765,-0.8313 C 130.718,39.687 139.832,32.0003 150.744,32 h 92.084 c 8.28,0 13.389,9.0419 9.116,16.1344 L 142.381,229.963 c -6.202,10.291 -21.111,10.328 -27.365,0.068 L 4.10622,48.0845 C -0.190472,41.0355 4.88245,32.0003 13.1375,32 Z"/><path id="path4" fill="#6e54ff" d="m 126.4,41.6 c -19.868,0 -68.8,47.7926 -68.8,67.2 0,19.406 48.932,67.2 68.8,67.2 19.867,0 68.8,-47.794 68.8,-67.2 0,-19.4064 -48.932,-67.2 -68.8,-67.2 z M 115.678,147.227 C 107.3,144.997 84.7753,106.511 87.0585,98.3273 89.3421,90.144 128.743,68.143 137.122,70.3734 c 8.378,2.2298 30.903,40.7146 28.62,48.8986 -2.283,8.184 -41.686,30.185 -50.064,27.955 z"/></g></svg>