<svg xmlns="http://www.w3.org/2000/svg" xmlns:svg="http://www.w3.org/2000/svg" id="svg3" width="256" height="256" fill="none" version="1.1" viewBox="0 0 256 256"><rect style="fill:#391b97;fill-opacity:1;stroke-width:1.17724" id="rect3" width="256" height="256" x="0" y="0"/><g id="g1" filter="url(#a)"><path id="path1" fill="#fff" d="M128.072 48C104.949 48 48 104.896 48 128C48 151.103 104.949 208 128.072 208C151.195 208 208.146 151.102 208.146 128C208.146 104.897 151.196 48 128.072 48ZM115.595 173.746C105.843 171.091 79.6278 125.274 82.2858 115.533C84.9426 105.79 130.801 79.5988 140.551 82.2536C150.303 84.9088 176.518 130.724 173.861 140.467C171.203 150.209 125.346 176.401 115.595 173.746Z"/></g><defs id="defs3"><filter id="a" width="162.146" height="162" x="47" y="48" color-interpolation-filters="sRGB" filterUnits="userSpaceOnUse"><feFlood id="feFlood1" flood-opacity="0" result="BackgroundImageFix"/><feColorMatrix id="feColorMatrix1" in="SourceAlpha" result="hardAlpha" type="matrix" values="0 0 0 0 0 0 0 0 0 0 0 0 0 0 0 0 0 0 127 0"/><feOffset id="feOffset1" dy="1"/><feGaussianBlur id="feGaussianBlur1" stdDeviation=".5"/><feComposite id="feComposite1" in2="hardAlpha" operator="out"/><feColorMatrix id="feColorMatrix2" type="matrix" values="0 0 0 0 0 0 0 0 0 0 0 0 0 0 0 0 0 0 0.125 0"/><feBlend id="feBlend2" in2="BackgroundImageFix" mode="normal" result="b"/><feBlend id="feBlend3" in="SourceGraphic" in2="b" mode="normal" result="shape"/></filter></defs></svg>