<svg xmlns="http://www.w3.org/2000/svg" xmlns:svg="http://www.w3.org/2000/svg" id="svg7" width="256" height="256" fill="none" version="1.1" viewBox="0 0 256 256"><g id="g5" clip-path="url(#a)"><mask id="b" width="256" height="256" x="0" y="0" maskUnits="userSpaceOnUse" style="mask-type:luminance"><path id="path1" fill="#fff" d="M256 0H0V256H256V0Z"/></mask><g id="g4" mask="url(#b)"><rect style="fill:#6e54ff;fill-opacity:1;stroke-width:6.53377" id="rect8" width="256" height="256" x="0" y="0"/><g id="g3" filter="url(#c)"><path id="path3" fill="#fff" d="M128.072 48C104.949 48 48 104.896 48 128C48 151.103 104.949 208 128.072 208C151.195 208 208.146 151.102 208.146 128C208.146 104.897 151.196 48 128.072 48ZM115.594 173.746C105.844 171.091 79.6277 125.275 82.2853 115.533C84.9429 105.79 130.801 79.5989 140.551 82.2539C150.302 84.9088 176.518 130.724 173.861 140.467C171.203 150.209 125.346 176.401 115.594 173.746Z"/></g></g></g><defs id="defs7"><filter id="c" width="190.146" height="190" x="33" y="48" color-interpolation-filters="sRGB" filterUnits="userSpaceOnUse"><feFlood id="feFlood5" flood-opacity="0" result="BackgroundImageFix"/><feColorMatrix id="feColorMatrix5" in="SourceAlpha" result="hardAlpha" type="matrix" values="0 0 0 0 0 0 0 0 0 0 0 0 0 0 0 0 0 0 127 0"/><feOffset id="feOffset5" dy="15"/><feGaussianBlur id="feGaussianBlur5" stdDeviation="7.5"/><feComposite id="feComposite5" in2="hardAlpha" operator="out"/><feColorMatrix id="feColorMatrix6" type="matrix" values="0 0 0 0 0 0 0 0 0 0 0 0 0 0 0 0 0 0 0.125 0"/><feBlend id="feBlend6" in2="BackgroundImageFix" mode="normal" result="d"/><feBlend id="feBlend7" in="SourceGraphic" in2="d" mode="normal" result="shape"/></filter><clipPath id="a"><rect id="rect7" width="256" height="256" fill="#fff"/></clipPath></defs></svg>