<svg xmlns="http://www.w3.org/2000/svg" xmlns:xlink="http://www.w3.org/1999/xlink" id="Layer_1" x="0" y="0" viewBox="0 0 85.6 85.6" xml:space="preserve" style="enable-background:new 0 0 85.6 85.6"><style type="text/css">.st41{fill:#00fbb2}.st42{fill:#09c39f}</style><g><path d="M28.6,37c-0.2-0.9-0.4-1.9-0.4-2.9c0-6.6,5.2-10.9,12.4-11.6v-5.3h0h3.7h0v5.3c7.1,0.6,12.6,5.1,12.8,11.9h0 h-5.3h0c-0.4-4.1-3.3-6.6-7.5-7.1v0c-0.6-0.1-1.2-0.1-1.8-0.1c-0.1,0-0.2,0-0.3,0c-0.6,0-1.1,0.1-1.7,0.2v-0.1 c-4.7,0.6-7.1,3.4-7.1,6.4c0,0.1,0,0.1,0,0.2c0,0.3,0,0.6,0.1,0.9c0,0.1,0.1,0.2,0.1,0.4c0,0.2,0.1,0.4,0.2,0.6 c0,0.1,0.1,0.3,0.2,0.4c0.1,0.2,0.2,0.4,0.3,0.5c0.1,0.1,0.2,0.3,0.3,0.4c0.1,0.2,0.2,0.3,0.4,0.5c0.1,0.1,0.3,0.2,0.4,0.4 c0.2,0.1,0.3,0.3,0.5,0.4c0.2,0.1,0.3,0.2,0.5,0.3c0.2,0.1,0.4,0.3,0.6,0.4c0.2,0.1,0.4,0.2,0.6,0.3c0.2,0.1,0.5,0.2,0.8,0.3 c0.2,0.1,0.5,0.2,0.7,0.3c0.4,0.1,0.7,0.2,1.1,0.4c1.1,0.4,2.5,0.7,4.1,0.9v0c0,0,0,0,0,0v0l1,0.2c5.5,1.3,9.2,3.3,11,6.5 c17.4,4.4,27.6-3.7,29.3-5.1L42.8,0L1.4,41.4C4.7,39,14,33.6,28.6,37z" class="st41"/><path d="M85.6,42.8L85.6,42.8c-1.7,1.5-11.9,9.5-29.3,5.1c0.8,1.4,1.3,3.1,1.3,5.1c0,7.4-6,11.4-13.2,12v5.3h0h-3.7h0 v-5.3c-7.3-0.6-13.3-5-13.6-12.1h0h5.3h0c0.1,1,0.4,1.9,0.8,2.7c0,0.1,0.1,0.2,0.2,0.3c0.2,0.3,0.3,0.6,0.5,0.9 c0.1,0.1,0.2,0.2,0.3,0.3c0.2,0.2,0.4,0.5,0.6,0.7c0.1,0.1,0.3,0.2,0.4,0.3c0.2,0.2,0.4,0.4,0.7,0.5c0.2,0.1,0.4,0.2,0.5,0.3 c0.3,0.1,0.5,0.3,0.8,0.4c0.2,0.1,0.5,0.2,0.7,0.2c0.3,0.1,0.6,0.2,0.9,0.3c0.3,0.1,0.6,0.1,0.8,0.2c0.3,0.1,0.6,0.1,1,0.2 c0,0,0,0,0,0v0c0.3,0,0.5,0.1,0.7,0.1c0.5,0.1,0.9,0.1,1.4,0.1c0.1,0,0.2,0,0.3,0c0.7,0,1.4-0.1,2-0.2c0.4,0,0.8-0.1,1.1-0.2 c0.3-0.1,0.6-0.1,0.8-0.2c0.3-0.1,0.6-0.2,0.8-0.3c0.2-0.1,0.5-0.1,0.7-0.2c0.3-0.1,0.5-0.2,0.7-0.4c0.2-0.1,0.4-0.2,0.5-0.3 c0.2-0.1,0.4-0.3,0.6-0.5c0.1-0.1,0.3-0.2,0.4-0.4c0.2-0.2,0.3-0.4,0.4-0.6c0.1-0.1,0.2-0.2,0.3-0.4c0.1-0.2,0.2-0.4,0.3-0.7 c0.1-0.1,0.1-0.2,0.2-0.4c0.1-0.3,0.2-0.6,0.2-0.9c0-0.1,0.1-0.2,0.1-0.3c0.1-0.4,0.1-0.8,0.1-1.2c0-3.4-1.7-5.5-7.7-7l-0.2,0v0 c0,0,0,0,0,0v0c-1.1-0.4-2.5-0.7-4.2-1l-0.2-0.1c-6.3-1.5-10.2-4.1-11.3-8.4C14,33.6,4.7,39,1.4,41.4L0,42.8l0,0.1l42.8,42.8 L85.6,42.8z" class="st42"/></g></svg>