<svg xmlns="http://www.w3.org/2000/svg" xmlns:xlink="http://www.w3.org/1999/xlink" id="Layer_1" x="0" y="0" version="1.1" viewBox="0 0 807.9 714.1" xml:space="preserve" style="enable-background:new 0 0 807.9 714.1"><style type="text/css">.st0{opacity:.7;fill:#45464d;enable-background:new}.st1{fill:#656569}.st2{fill:url(#SVGID_1_)}.st3{fill:url(#SVGID_2_)}.st4{fill:url(#SVGID_3_)}.st5{fill:#757578}.st6{fill:#6c6d70}.st7{fill:#55565a}.st10,.st11,.st12,.st13,.st8,.st9{opacity:.7;enable-background:new}.st8{fill:#151a22}.st9{fill:#23262e}.st10{fill:#43444b}.st11{fill:#34363d}.st12{fill:#36383f}.st13{fill:#3b3c43}</style><g><polygon points="641.4 18.1 236 0 0 294.8 165.4 688.9 574.8 713.7 807.9 382.2" class="st0"/><g><polygon points="807.9 382.6 577 148.4 516.2 597.7" class="st1"/><linearGradient id="SVGID_1_" x1="157.357" x2="576.977" y1="351.118" y2="351.118" gradientTransform="matrix(1 0 0 -1 0 724.16)" gradientUnits="userSpaceOnUse"><stop offset="0" style="stop-color:#a3a2a5"/><stop offset=".271" style="stop-color:#9f9ea0"/><stop offset=".561" style="stop-color:#929194"/><stop offset=".859" style="stop-color:#7c7c80"/><stop offset="1" style="stop-color:#707073"/></linearGradient><polygon points="157.4 329.9 577 148.4 516.2 597.7" class="st2"/><linearGradient id="SVGID_2_" x1="154.582" x2="452.734" y1="400.248" y2="695.523" gradientTransform="matrix(1 0 0 -1 0 724.16)" gradientUnits="userSpaceOnUse"><stop offset="0" style="stop-color:#969598"/><stop offset=".34" style="stop-color:#908f92"/><stop offset=".792" style="stop-color:#7f7f82"/><stop offset="1" style="stop-color:#757578"/></linearGradient><polygon points="577 148.4 236 .4 157.4 329.9" class="st3"/><linearGradient id="SVGID_3_" x1="177.562" x2="336.832" y1="404.415" y2="88.575" gradientTransform="matrix(1 0 0 -1 0 724.16)" gradientUnits="userSpaceOnUse"><stop offset="0" style="stop-color:#9e9ea0"/><stop offset=".276" style="stop-color:#9b9b9d"/><stop offset=".494" style="stop-color:#919194"/><stop offset=".692" style="stop-color:#808083"/><stop offset=".878" style="stop-color:#69696d"/><stop offset="1" style="stop-color:#55565a"/></linearGradient><polygon points="157.4 329.9 165.4 689.3 516.2 597.7" class="st4"/><polygon points="577 148.4 641.4 18.5 236 .4" class="st5"/><polygon points="641.4 18.5 807.9 382.6 577 148.4" class="st6"/><polygon points="807.9 382.6 574.8 714.1 516.2 597.7" class="st6"/><polygon points="574.8 714.1 165.4 689.3 516.2 597.7" class="st7"/><polygon points="236 .4 0 295.3 157.4 329.9" class="st7"/><polygon points="0 295.3 165.4 689.3 157.4 329.9" class="st1"/><polygon points="534 210.3 491.5 532.4 240.8 338.5" class="st8"/><polygon points="500.1 146.1 265.8 45.1 216.5 257.4" class="st8"/><polygon points="440.7 581.1 186 399.2 192.2 645.7" class="st9"/><polygon points="765.1 381.8 591.6 205.6 545.8 544.4" class="st9"/><polygon points="500.4 620.8 538.2 693.1 285.6 676.9" class="st10"/><polygon points="731.2 461.7 543.2 601.9 580.6 674.9" class="st11"/><polygon points="642.3 69.4 741.7 282.6 605.8 144.4" class="st11"/><polygon points="596.8 33.5 555 110 358.1 23.8" class="st12"/><polygon points="202.6 68.2 147.2 303.1 35.4 279.4" class="st13"/><polygon points="140.4 344.5 145.3 596.9 28.1 320.7" class="st0"/></g></g></svg>